<svg width="28" height="28" viewBox="0 0 28 28" fill="none" xmlns="http://www.w3.org/2000/svg">
<rect width="28" height="28" rx="14" fill="#332A2A"/>
<path d="M13.7752 9.27493L15.0252 8.02493C15.3502 7.69991 15.7361 7.44209 16.1607 7.26619C16.5854 7.09029 17.0405 6.99976 17.5002 6.99976C17.9598 6.99976 18.415 7.09029 18.8396 7.26619C19.2643 7.44209 19.6502 7.69991 19.9752 8.02493C20.3002 8.34996 20.558 8.73581 20.7339 9.16047C20.9098 9.58514 21.0004 10.0403 21.0004 10.4999C21.0004 10.9596 20.9098 11.4147 20.7339 11.8394C20.558 12.2641 20.3002 12.6499 19.9752 12.9749L17.4752 15.4749C17.1502 15.8 16.7643 16.0578 16.3397 16.2337C15.915 16.4096 15.4598 16.5002 15.0002 16.5002C14.5405 16.5002 14.0854 16.4096 13.6607 16.2337C13.236 16.0578 12.8502 15.8 12.5252 15.4749C12.3928 15.3327 12.3207 15.1446 12.324 14.9503C12.3274 14.756 12.4059 14.5705 12.5432 14.4329C12.6808 14.2957 12.8662 14.2171 13.0605 14.2138C13.2549 14.2104 13.4429 14.2825 13.5852 14.4149C13.7708 14.6011 13.9913 14.7489 14.2341 14.8497C14.477 14.9505 14.7373 15.0023 15.0002 15.0023C15.2631 15.0023 15.5234 14.9505 15.7662 14.8497C16.009 14.7489 16.2296 14.6011 16.4152 14.4149L18.9152 11.9149C19.2722 11.536 19.4676 11.0329 19.4598 10.5123C19.452 9.9917 19.2418 9.49461 18.8737 9.12646C18.5055 8.75831 18.0084 8.54806 17.4878 8.54031C16.9673 8.53256 16.4641 8.72791 16.0852 9.08493L14.8352 10.3349C14.6929 10.4673 14.5049 10.5394 14.3105 10.5361C14.1162 10.5327 13.9308 10.4542 13.7932 10.3169C13.6559 10.1793 13.5774 9.99388 13.574 9.79956C13.5707 9.60525 13.6428 9.4172 13.7752 9.27493ZM9.08518 18.9149C9.27079 19.1011 9.49132 19.2489 9.73414 19.3497C9.97695 19.4505 10.2373 19.5023 10.5002 19.5023C10.7631 19.5023 11.0234 19.4505 11.2662 19.3497C11.509 19.2489 11.7296 19.1011 11.9152 18.9149L13.1652 17.6649C13.3074 17.5325 13.4955 17.4604 13.6898 17.4638C13.8841 17.4671 14.0696 17.5457 14.2072 17.6829C14.3444 17.8205 14.423 18.006 14.4263 18.2003C14.4297 18.3946 14.3576 18.5827 14.2252 18.7249L12.9752 19.9749C12.6502 20.3 12.2643 20.5578 11.8396 20.7337C11.415 20.9096 10.9598 21.0001 10.5002 21.0001C9.57187 21.0001 8.68159 20.6313 8.02518 19.9749C7.36877 19.3185 7 18.4282 7 17.4999C7 16.5716 7.36877 15.6813 8.02518 15.0249L10.5252 12.5249C10.8502 12.1999 11.236 11.9421 11.6607 11.7661C12.0854 11.5902 12.5405 11.4997 13.0002 11.4997C13.4598 11.4997 13.915 11.5902 14.3397 11.7661C14.7643 11.9421 15.1502 12.1999 15.4752 12.5249C15.6076 12.6672 15.6797 12.8552 15.6763 13.0496C15.673 13.2439 15.5944 13.4293 15.4572 13.5669C15.3196 13.7042 15.1341 13.7827 14.9398 13.7861C14.7455 13.7894 14.5574 13.7173 14.4152 13.5849C14.2296 13.3987 14.009 13.251 13.7662 13.1502C13.5234 13.0494 13.2631 12.9975 13.0002 12.9975C12.7373 12.9975 12.477 13.0494 12.2341 13.1502C11.9913 13.251 11.7708 13.3987 11.5852 13.5849L9.08518 16.0849C8.89899 16.2705 8.75126 16.4911 8.65046 16.7339C8.54966 16.9767 8.49777 17.237 8.49777 17.4999C8.49777 17.7628 8.54966 18.0232 8.65046 18.266C8.75126 18.5088 8.89899 18.7293 9.08518 18.9149Z" fill="white"/>
</svg>
