<svg width="25" height="25" viewBox="0 0 25 25" fill="none" xmlns="http://www.w3.org/2000/svg">
<mask id="path-1-inside-1_48_13781" fill="white">
<path fill-rule="evenodd" clip-rule="evenodd" d="M0.923828 2.52823L2.33804 1.11401L4.45936 3.23534L6.58068 1.11402L7.9949 2.52823L5.87358 4.64955L7.9949 6.77087L6.58068 8.18508L4.45936 6.06376L2.33804 8.18509L0.923828 6.77087L3.04515 4.64955L0.923828 2.52823Z"/>
</mask>
<path d="M2.33804 1.11401L3.75226 -0.3002L2.33804 -1.71441L0.923828 -0.3002L2.33804 1.11401ZM0.923828 2.52823L-0.490385 1.11401L-1.9046 2.52823L-0.490386 3.94244L0.923828 2.52823ZM4.45936 3.23534L3.04515 4.64955L4.45936 6.06376L5.87358 4.64955L4.45936 3.23534ZM6.58068 1.11402L7.9949 -0.300194L6.58068 -1.71441L5.16647 -0.300194L6.58068 1.11402ZM7.9949 2.52823L9.40911 3.94245L10.8233 2.52823L9.40911 1.11402L7.9949 2.52823ZM5.87358 4.64955L4.45936 3.23534L3.04515 4.64955L4.45936 6.06376L5.87358 4.64955ZM7.9949 6.77087L9.40911 8.18508L10.8233 6.77087L9.40911 5.35666L7.9949 6.77087ZM6.58068 8.18508L5.16647 9.59929L6.58068 11.0135L7.99489 9.5993L6.58068 8.18508ZM4.45936 6.06376L5.87358 4.64955L4.45936 3.23534L3.04515 4.64955L4.45936 6.06376ZM2.33804 8.18509L0.923828 9.5993L2.33804 11.0135L3.75226 9.5993L2.33804 8.18509ZM0.923828 6.77087L-0.490385 5.35666L-1.9046 6.77087L-0.490386 8.18509L0.923828 6.77087ZM3.04515 4.64955L4.45937 6.06376L5.87358 4.64955L4.45937 3.23534L3.04515 4.64955ZM0.923828 -0.3002L-0.490385 1.11401L2.33804 3.94244L3.75226 2.52823L0.923828 -0.3002ZM5.87358 1.82112L3.75226 -0.3002L0.923828 2.52823L3.04515 4.64955L5.87358 1.82112ZM5.16647 -0.300194L3.04515 1.82112L5.87358 4.64955L7.9949 2.52823L5.16647 -0.300194ZM9.40911 1.11402L7.9949 -0.300194L5.16647 2.52823L6.58068 3.94245L9.40911 1.11402ZM7.28779 6.06376L9.40911 3.94245L6.58068 1.11402L4.45936 3.23534L7.28779 6.06376ZM9.40911 5.35666L7.28779 3.23534L4.45936 6.06376L6.58068 8.18508L9.40911 5.35666ZM7.99489 9.5993L9.40911 8.18508L6.58068 5.35665L5.16647 6.77087L7.99489 9.5993ZM3.04515 7.47798L5.16647 9.59929L7.9949 6.77087L5.87358 4.64955L3.04515 7.47798ZM3.75226 9.5993L5.87358 7.47798L3.04515 4.64955L0.923828 6.77087L3.75226 9.5993ZM-0.490386 8.18509L0.923828 9.5993L3.75226 6.77087L2.33804 5.35666L-0.490386 8.18509ZM1.63094 3.23534L-0.490385 5.35666L2.33804 8.18509L4.45937 6.06376L1.63094 3.23534ZM-0.490386 3.94244L1.63094 6.06376L4.45937 3.23534L2.33804 1.11401L-0.490386 3.94244Z" fill="#FF5A5F" mask="url(#path-1-inside-1_48_13781)"/>
<mask id="path-3-inside-2_48_13781" fill="white">
<path d="M20.4893 5.55225C21.0415 5.55225 21.4893 5.99996 21.4893 6.55225V23.0433H20.4893V5.55225Z"/>
</mask>
<path d="M21.4893 23.0433V25.0433H23.4893V23.0433H21.4893ZM20.4893 23.0433H18.4893V25.0433H20.4893V23.0433ZM20.4893 5.55225V3.55225H18.4893V5.55225H20.4893ZM19.4893 6.55225V23.0433H23.4893V6.55225H19.4893ZM21.4893 21.0433H20.4893V25.0433H21.4893V21.0433ZM22.4893 23.0433V5.55225H18.4893V23.0433H22.4893ZM20.4893 7.55225C19.937 7.55225 19.4893 7.10453 19.4893 6.55225H23.4893C23.4893 4.89539 22.1461 3.55225 20.4893 3.55225V7.55225Z" fill="#FF5A5F" mask="url(#path-3-inside-2_48_13781)"/>
<path fill-rule="evenodd" clip-rule="evenodd" d="M5.5 22.6087V22.7467V23.2467C5.5 23.6922 6.03857 23.9153 6.35355 23.6003L6.70711 23.2467L7.35696 22.5969L7.5 22.4538L12.4861 17.4677L11.5706 16.5522L7.5 20.6228L7.35696 20.7659L6.70711 21.4157L6.35355 21.7693C6.32827 21.7946 6.30156 21.8164 6.27379 21.8349L5.5 22.6087ZM19.5 22.4538L17.2239 20.1777L18.1394 19.2623L19.5 20.6228V22.3195V22.4538ZM20.5 23.4538L20.6464 23.6003C20.9614 23.9153 21.5 23.6922 21.5 23.2467V22.7467V21.8277V21.6254V21.4157C21.5 21.8612 20.9614 22.0843 20.6464 21.7693L20.5 21.6228V22.3195V23.4538Z" fill="#FF5A5F"/>
<path fill-rule="evenodd" clip-rule="evenodd" d="M5.77629 9.47427C6.16682 9.86479 6.79998 9.86479 7.19051 9.47427L9.31183 7.35294C9.70235 6.96242 9.70235 6.32926 9.31183 5.93873L7.97228 4.59918L9.0192 3.55226L9.01922 3.55225H18.5C19.0523 3.55225 19.5 3.99996 19.5 4.55225V22.3451C19.5 22.7906 18.9614 23.0137 18.6464 22.6987L12.2071 16.2594C11.8166 15.8688 11.1834 15.8688 10.7929 16.2594L4.35355 22.6987C4.03857 23.0137 3.5 22.7906 3.5 22.3451V9.07146L4.43674 8.13472L5.77629 9.47427Z" fill="#FF5A5F"/>
</svg>
