<svg width="24" height="25" viewBox="0 0 24 25" fill="none" xmlns="http://www.w3.org/2000/svg">
<path fill-rule="evenodd" clip-rule="evenodd" d="M24 5.08667H23V6.08667H24V5.08667ZM22 5.08667H11V6.08667H22V5.08667ZM6 5.08667H9V11.0867H15V14.0867H9V20.0867H6V14.0867H0V11.0867H6V5.08667ZM11 8.08667H22V9.08667H11V8.08667ZM22 11.0867H17V12.0867H22V11.0867ZM17 14.0867H22V15.0867H17V14.0867ZM23 8.08667H24V9.08667H23V8.08667ZM24 11.0867H23V12.0867H24V11.0867ZM23 14.0867H24V15.0867H23V14.0867Z" fill="#807172"/>
</svg>
