<svg xmlns="http://www.w3.org/2000/svg" width="16" height="16" viewBox="0 0 16 16" fill="none">
  <path fill-rule="evenodd" clip-rule="evenodd" d="M12.5818 2.00098L11.0018 2.00098C10.7366 2.00098 10.4823 1.89562 10.2947 1.70808C10.1072 1.52055 10.0018 1.26619 10.0018 1.00098C10.0018 0.73576 10.1072 0.481406 10.2947 0.29387C10.4823 0.106333 10.7366 0.000976563 11.0018 0.000976563L15.0018 0.000976563C15.267 0.000976563 15.5214 0.106333 15.7089 0.29387C15.8965 0.481406 16.0018 0.73576 16.0018 1.00098V5.00098C16.0018 5.26619 15.8965 5.52055 15.7089 5.70808C15.5214 5.89562 15.267 6.00098 15.0018 6.00098C14.7366 6.00098 14.4823 5.89562 14.2947 5.70808C14.1072 5.52055 14.0018 5.26619 14.0018 5.00098V3.42098L10.7118 6.70098C10.6189 6.7947 10.5083 6.8691 10.3864 6.91987C10.2645 6.97064 10.1338 6.99677 10.0018 6.99677C9.86982 6.99677 9.73911 6.97064 9.61725 6.91987C9.49539 6.8691 9.38479 6.7947 9.29183 6.70098C9.1981 6.60801 9.12371 6.49741 9.07294 6.37555C9.02217 6.25369 8.99603 6.12299 8.99603 5.99098C8.99603 5.85896 9.02217 5.72826 9.07294 5.6064C9.12371 5.48454 9.1981 5.37394 9.29183 5.28098L12.5818 2.00098ZM3.42195 14.001H5.00195C5.26717 14.001 5.52152 14.1063 5.70906 14.2939C5.8966 14.4814 6.00195 14.7358 6.00195 15.001C6.00195 15.2662 5.8966 15.5205 5.70906 15.7081C5.52152 15.8956 5.26717 16.001 5.00195 16.001L1.00195 16.001C0.736737 16.001 0.482382 15.8956 0.294846 15.7081C0.107309 15.5205 0.00195312 15.2662 0.00195312 15.001L0.00195312 11.001C0.00195312 10.7358 0.10731 10.4814 0.294846 10.2939C0.482382 10.1063 0.736737 10.001 1.00195 10.001C1.26717 10.001 1.52152 10.1063 1.70906 10.2939C1.8966 10.4814 2.00195 10.7358 2.00195 11.001L2.00195 12.581L5.29195 9.30098C5.38492 9.20725 5.49552 9.13285 5.61738 9.08209C5.73924 9.03132 5.86994 9.00518 6.00195 9.00518C6.13397 9.00518 6.26467 9.03132 6.38653 9.08209C6.50839 9.13285 6.61899 9.20725 6.71195 9.30098C6.80568 9.39394 6.88008 9.50454 6.93084 9.6264C6.98161 9.74826 7.00775 9.87897 7.00775 10.011C7.00775 10.143 6.98161 10.2737 6.93084 10.3956C6.88008 10.5174 6.80568 10.628 6.71195 10.721L3.42195 14.001Z" fill="#979797"/>
</svg>