
<svg xmlns="http://www.w3.org/2000/svg" width="24" height="24" viewBox="0 0 24 25" fill="none">
<mask id="path-1-inside-1_267_11714" fill="white">
<path fill-rule="evenodd" clip-rule="evenodd" d="M3 0.58667H5V3.58667H8V5.58667H5V8.58667H3V5.58667H0V3.58667H3V0.58667Z"/>
</mask>
<path d="M5 0.58667H7V-1.41333H5V0.58667ZM3 0.58667V-1.41333H1V0.58667H3ZM5 3.58667H3V5.58667H5V3.58667ZM8 3.58667H10V1.58667H8V3.58667ZM8 5.58667V7.58667H10V5.58667H8ZM5 5.58667V3.58667H3V5.58667H5ZM5 8.58667V10.5867H7V8.58667H5ZM3 8.58667H1V10.5867H3V8.58667ZM3 5.58667H5V3.58667H3V5.58667ZM0 5.58667H-2V7.58667H0V5.58667ZM0 3.58667V1.58667H-2V3.58667H0ZM3 3.58667V5.58667H5V3.58667H3ZM5 -1.41333H3V2.58667H5V-1.41333ZM7 3.58667V0.58667H3V3.58667H7ZM8 1.58667H5V5.58667H8V1.58667ZM10 5.58667V3.58667H6V5.58667H10ZM5 7.58667H8V3.58667H5V7.58667ZM7 8.58667V5.58667H3V8.58667H7ZM3 10.5867H5V6.58667H3V10.5867ZM1 5.58667V8.58667H5V5.58667H1ZM0 7.58667H3V3.58667H0V7.58667ZM-2 3.58667V5.58667H2V3.58667H-2ZM3 1.58667H0V5.58667H3V1.58667ZM1 0.58667V3.58667H5V0.58667H1Z" fill="#998B8C" mask="url(#path-1-inside-1_267_11714)"/>
<mask id="path-3-inside-2_267_11714" fill="white">
<path d="M19.9893 5.58667C20.5415 5.58667 20.9893 6.03439 20.9893 6.58667V23.0778H19.9893V5.58667Z"/>
</mask>
<path d="M20.9893 23.0778V25.0778H22.9893V23.0778H20.9893ZM19.9893 23.0778H17.9893V25.0778H19.9893V23.0778ZM18.9893 6.58667V23.0778H22.9893V6.58667H18.9893ZM20.9893 21.0778H19.9893V25.0778H20.9893V21.0778ZM21.9893 23.0778V5.58667H17.9893V23.0778H21.9893ZM19.9893 7.58667C19.437 7.58667 18.9893 7.13895 18.9893 6.58667H22.9893C22.9893 4.92982 21.6461 3.58667 19.9893 3.58667V7.58667Z" fill="#998B8C" mask="url(#path-3-inside-2_267_11714)"/>
<path fill-rule="evenodd" clip-rule="evenodd" d="M5 22.6431V22.7811V23.2811C5 23.7266 5.53857 23.9497 5.85355 23.6347L6.20711 23.2811L6.85696 22.6313L7 22.4882L11.9861 17.5022L11.0706 16.5867L7 20.6573L6.85696 20.8003L6.20711 21.4502L5.85355 21.8037C5.82827 21.829 5.80156 21.8508 5.77379 21.8693L5 22.6431ZM19 22.4882L16.7239 20.2122L17.6394 19.2967L19 20.6573V22.354V22.4882ZM20 23.4882L20.1464 23.6347C20.4614 23.9497 21 23.7266 21 23.2811V22.7811V21.8621V21.6598V21.4502C21 21.8956 20.4614 22.1187 20.1464 21.8037L20 21.6573V22.354V23.4882Z" fill="#998B8C"/>
<path fill-rule="evenodd" clip-rule="evenodd" d="M3 10.5867V20.7582V20.9605V21.8796V22.3796C3 22.825 3.53857 23.0481 3.85355 22.7331L4.20711 22.3796L4.85696 21.7297L5 21.5867L10.2929 16.2938C10.6834 15.9033 11.3166 15.9033 11.7071 16.2938L17 21.5867L17.143 21.7297L17.7929 22.3796L18.1464 22.7331C18.4614 23.0481 19 22.825 19 22.3796V21.8796V20.9605V20.7582V4.58667C19 4.03439 18.5523 3.58667 18 3.58667H9.8623V5.58667H17V18.7582L13.1213 14.8796C11.9497 13.708 10.0503 13.708 8.87868 14.8796L5 18.7582V10.5867H3Z" fill="#998B8C"/>
</svg>