<svg width="28" height="28" viewBox="0 0 28 28" fill="none" xmlns="http://www.w3.org/2000/svg">
<rect width="28" height="28" rx="14" fill="#332A2A"/>
<g clip-path="url(#clip0_69_9186)">
<path d="M14 7.21875C10.1331 7.21875 7 10.2539 7 14C7 17.7461 10.1331 20.7812 14 20.7812C17.8669 20.7812 21 17.7461 21 14C21 10.2539 17.8669 7.21875 14 7.21875ZM19.6452 14C19.6452 14.6152 19.5351 15.2086 19.3403 15.7609H18.7673C18.646 15.7609 18.5302 15.7145 18.4456 15.6297L17.5423 14.7383C17.4153 14.6125 17.4153 14.4074 17.5452 14.2816L17.898 13.9398V13.702C17.898 13.6199 17.8641 13.5406 17.8048 13.4832L17.5395 13.2262C17.4802 13.1687 17.3984 13.1359 17.3137 13.1359H16.8621C16.6871 13.1359 16.5431 12.9965 16.5431 12.827C16.5431 12.7449 16.577 12.6656 16.6363 12.6082L16.9016 12.3512C16.9609 12.2937 17.0427 12.2609 17.1274 12.2609H18.0306C18.2056 12.2609 18.3496 12.1215 18.3496 11.952V11.6949C18.3496 11.5254 18.2056 11.3859 18.0306 11.3859H16.9948C16.7464 11.3859 16.5431 11.5828 16.5431 11.8234V11.9465C16.5431 12.1352 16.419 12.302 16.2355 12.3621L15.3435 12.6492C15.2504 12.6793 15.1883 12.7613 15.1883 12.857V12.9172C15.1883 13.0375 15.0867 13.1359 14.9625 13.1359H14.5109C14.3867 13.1359 14.2851 13.0375 14.2851 12.9172C14.2851 12.7969 14.1835 12.6984 14.0593 12.6984H13.9718C13.8871 12.6984 13.8081 12.7449 13.7685 12.8187L13.5032 13.3301C13.427 13.4777 13.2718 13.5707 13.0996 13.5707H12.4758C12.2274 13.5707 12.0242 13.3738 12.0242 13.1332V12.4414C12.0242 12.3266 12.0722 12.2145 12.1569 12.1324L12.7242 11.5828C12.854 11.457 12.9274 11.2848 12.9274 11.1043C12.9274 11.0113 12.9895 10.9266 13.0827 10.8965L14.2117 10.5328C14.2597 10.5164 14.302 10.4918 14.3359 10.459L15.0923 9.72617C15.1516 9.66875 15.1855 9.58945 15.1855 9.50742C15.1855 9.33789 15.0415 9.19844 14.8665 9.19844H14.2823L13.8306 9.63594V9.85469C13.8306 9.975 13.729 10.0734 13.6048 10.0734H13.1532C13.029 10.0734 12.9274 9.975 12.9274 9.85469V9.30781C12.9274 9.23945 12.9613 9.17383 13.0177 9.13281L13.8335 8.53945C13.8871 8.53672 13.9407 8.53125 13.9944 8.53125C17.1133 8.53125 19.6452 10.984 19.6452 14ZM10.6722 11.077C10.6722 10.9949 10.706 10.9156 10.7653 10.8582L11.4823 10.1637C11.5415 10.1062 11.6234 10.0734 11.7081 10.0734C11.8831 10.0734 12.027 10.2129 12.027 10.3824V10.8199C12.027 10.902 11.9931 10.9812 11.9339 11.0387L11.6685 11.2957C11.6093 11.3531 11.5274 11.3859 11.4427 11.3859H10.9911C10.8161 11.3859 10.6722 11.2465 10.6722 11.077ZM14.2851 19.4551V19.2609C14.2851 19.0203 14.0819 18.8234 13.8335 18.8234H13.2633C12.9585 18.8234 12.5097 18.6785 12.2641 18.5008L11.6375 18.0441C11.3129 17.809 11.1238 17.4398 11.1238 17.0488V16.3953C11.1238 15.9578 11.3609 15.5531 11.7476 15.3289L12.9585 14.6262C13.1589 14.5113 13.3875 14.4484 13.619 14.4484H14.4996C14.8073 14.4484 15.1036 14.5551 15.3351 14.7465L16.5544 15.7609H17.071C17.3109 15.7609 17.5395 15.8539 17.7089 16.018L18.1972 16.491C18.2931 16.584 18.4258 16.6359 18.5613 16.6359H18.9395C18.025 18.2465 16.2919 19.3566 14.2851 19.4551Z" fill="white"/>
</g>
<defs>
<clipPath id="clip0_69_9186">
<rect width="14" height="14" fill="white" transform="translate(7 7)"/>
</clipPath>
</defs>
</svg>
