<svg width="25" height="24" viewBox="0 0 25 24" fill="none" xmlns="http://www.w3.org/2000/svg">
<path d="M9.1947 10.5565L9.7452 16.0105C9.7757 16.241 10.8887 16.999 12.5002 17C14.1127 16.999 15.2257 16.241 15.2557 16.0105L15.8067 10.5565C14.9647 11.0275 13.7062 11.25 12.5002 11.25C11.2952 11.25 10.0362 11.0275 9.1947 10.5565ZM14.0842 7.755L13.6547 7.2795C13.4887 7.043 13.3087 7 12.9582 7H12.0427C11.6927 7 11.5122 7.043 11.3467 7.2795L10.9172 7.755C9.6322 7.9795 8.7002 8.575 8.7002 9.0145V9.0995C8.7002 9.873 10.4017 10.5 12.5002 10.5C14.5992 10.5 16.3007 9.873 16.3007 9.0995V9.0145C16.3007 8.575 15.3692 7.9795 14.0842 7.755ZM13.5352 9.17L13.0002 8.5H12.0002L11.4662 9.17H10.6162C10.6162 9.17 11.5472 8.0595 11.6717 7.909C11.7667 7.794 11.8637 7.75 11.9897 7.75H13.0112C13.1377 7.75 13.2347 7.794 13.3297 7.909C13.4537 8.0595 14.3852 9.17 14.3852 9.17H13.5352Z" fill="#FF5A5F"/>
</svg>
