<svg width="25" height="24" viewBox="0 0 25 24" fill="none" xmlns="http://www.w3.org/2000/svg">
<path d="M7.21112 9.6904L8.09192 18.4168C8.14072 18.7856 9.92152 19.9984 12.4999 20C15.0799 19.9984 16.8607 18.7856 16.9087 18.4168L17.7903 9.6904C16.4431 10.444 14.4295 10.8 12.4999 10.8C10.5719 10.8 8.55752 10.444 7.21112 9.6904ZM15.0343 5.208L14.3471 4.4472C14.0815 4.0688 13.7935 4 13.2327 4H11.7679C11.2079 4 10.9191 4.0688 10.6543 4.4472L9.96712 5.208C7.91112 5.5672 6.41992 6.52 6.41992 7.2232V7.3592C6.41992 8.5968 9.14232 9.6 12.4999 9.6C15.8583 9.6 18.5807 8.5968 18.5807 7.3592V7.2232C18.5807 6.52 17.0903 5.5672 15.0343 5.208ZM14.1559 7.472L13.2999 6.4H11.6999L10.8455 7.472H9.48552C9.48552 7.472 10.9751 5.6952 11.1743 5.4544C11.3263 5.2704 11.4815 5.2 11.6831 5.2H13.3175C13.5199 5.2 13.6751 5.2704 13.8271 5.4544C14.0255 5.6952 15.5159 7.472 15.5159 7.472H14.1559Z" fill="#FF5A5F"/>
</svg>
