<svg xmlns="http://www.w3.org/2000/svg" width="16" height="16" viewBox="0 0 16 16" fill="none">
  <path fill-rule="evenodd" clip-rule="evenodd" d="M9.41525 8.00105L15.7085 1.70707C16.099 1.31652 16.099 0.683356 15.7084 0.292854C15.3179 -0.0976492 14.6847 -0.0976133 14.2942 0.292934L8.00096 6.58691L1.70707 0.293736C1.31652 -0.0967664 0.683355 -0.0967305 0.292853 0.293816C-0.097649 0.684362 -0.0976131 1.31753 0.292933 1.70803L6.58682 8.00121L0.293614 14.2951C-0.0968882 14.6857 -0.0968523 15.3188 0.293694 15.7093C0.68424 16.0998 1.31741 16.0998 1.70791 15.7093L8.00112 9.41534L14.2951 15.7086C14.6857 16.0991 15.3188 16.0991 15.7093 15.7086C16.0998 15.318 16.0998 14.6848 15.7093 14.2943L9.41525 8.00105Z" fill="#979797"/>
</svg>