<svg width="24" height="24" viewBox="0 0 24 24" fill="none" xmlns="http://www.w3.org/2000/svg">
<mask id="path-1-inside-1_192_7167" fill="white">
<path d="M19.9893 5.00195C20.5415 5.00195 20.9893 5.44967 20.9893 6.00195V22.493H19.9893V5.00195Z"/>
</mask>
<path d="M20.9893 22.493V24.493H22.9893V22.493H20.9893ZM19.9893 22.493H17.9893V24.493H19.9893V22.493ZM19.9893 5.00195V3.00195H17.9893V5.00195H19.9893ZM18.9893 6.00195V22.493H22.9893V6.00195H18.9893ZM20.9893 20.493H19.9893V24.493H20.9893V20.493ZM21.9893 22.493V5.00195H17.9893V22.493H21.9893ZM19.9893 7.00195C19.437 7.00195 18.9893 6.55424 18.9893 6.00195H22.9893C22.9893 4.3451 21.6461 3.00195 19.9893 3.00195V7.00195Z" fill="#FF5A5F" mask="url(#path-1-inside-1_192_7167)"/>
<path fill-rule="evenodd" clip-rule="evenodd" d="M5 22.0584V22.1964V22.6964C5 23.1419 5.53857 23.365 5.85355 23.05L6.20711 22.6964L6.85696 22.0466L7 21.9035L11.9861 16.9174L11.0706 16.002L7 20.0726L6.85696 20.2156L6.20711 20.8654L5.85355 21.219C5.82827 21.2443 5.80156 21.2661 5.77379 21.2846L5 22.0584ZM19 21.9035L16.7239 19.6274L17.6394 18.712L19 20.0726V21.7692V21.9035ZM20 22.9035L20.1464 23.05C20.4614 23.365 21 23.1419 21 22.6964V22.1964V21.2774V21.0751V20.8654C21 21.3109 20.4614 21.534 20.1464 21.219L20 21.0726V21.7692V22.9035Z" fill="#FF5A5F"/>
<path d="M3 4.00195C3 3.44967 3.44772 3.00195 4 3.00195H18C18.5523 3.00195 19 3.44967 19 4.00195V21.7948C19 22.2403 18.4614 22.4634 18.1464 22.1484L11.7071 15.7091C11.3166 15.3185 10.6834 15.3185 10.2929 15.7091L3.85355 22.1484C3.53857 22.4634 3 22.2403 3 21.7948V4.00195Z" fill="#FF5A5F"/>
</svg>
