<svg width="28" height="28" viewBox="0 0 28 28" fill="none" xmlns="http://www.w3.org/2000/svg">
<rect width="28" height="28" rx="14" fill="#E6E0E1"/>
<path d="M13.7752 9.27518L15.0252 8.02518C15.3502 7.70016 15.7361 7.44234 16.1607 7.26644C16.5854 7.09053 17.0405 7 17.5002 7C17.9598 7 18.415 7.09053 18.8396 7.26644C19.2643 7.44234 19.6502 7.70016 19.9752 8.02518C20.3002 8.3502 20.558 8.73606 20.7339 9.16072C20.9098 9.58538 21.0004 10.0405 21.0004 10.5002C21.0004 10.9598 20.9098 11.415 20.7339 11.8396C20.558 12.2643 20.3002 12.6502 19.9752 12.9752L17.4752 15.4752C17.1502 15.8002 16.7643 16.0581 16.3397 16.234C15.915 16.4099 15.4598 16.5004 15.0002 16.5004C14.5405 16.5004 14.0854 16.4099 13.6607 16.234C13.236 16.0581 12.8502 15.8002 12.5252 15.4752C12.3928 15.3329 12.3207 15.1449 12.324 14.9505C12.3274 14.7562 12.4059 14.5708 12.5432 14.4332C12.6808 14.2959 12.8662 14.2174 13.0605 14.214C13.2549 14.2107 13.4429 14.2828 13.5852 14.4152C13.7708 14.6014 13.9913 14.7491 14.2341 14.8499C14.477 14.9507 14.7373 15.0026 15.0002 15.0026C15.2631 15.0026 15.5234 14.9507 15.7662 14.8499C16.009 14.7491 16.2296 14.6014 16.4152 14.4152L18.9152 11.9152C19.2722 11.5362 19.4676 11.0331 19.4598 10.5125C19.452 9.99194 19.2418 9.49485 18.8737 9.12671C18.5055 8.75856 18.0084 8.54831 17.4878 8.54056C16.9673 8.5328 16.4641 8.72816 16.0852 9.08518L14.8352 10.3352C14.6929 10.4676 14.5049 10.5397 14.3105 10.5363C14.1162 10.533 13.9308 10.4544 13.7932 10.3172C13.6559 10.1796 13.5774 9.99413 13.574 9.79981C13.5707 9.60549 13.6428 9.41744 13.7752 9.27518ZM9.08518 18.9152C9.27079 19.1014 9.49132 19.2491 9.73414 19.3499C9.97695 19.4507 10.2373 19.5026 10.5002 19.5026C10.7631 19.5026 11.0234 19.4507 11.2662 19.3499C11.509 19.2491 11.7296 19.1014 11.9152 18.9152L13.1652 17.6652C13.3074 17.5328 13.4955 17.4607 13.6898 17.464C13.8841 17.4674 14.0696 17.5459 14.2072 17.6832C14.3444 17.8208 14.423 18.0062 14.4263 18.2005C14.4297 18.3949 14.3576 18.5829 14.2252 18.7252L12.9752 19.9752C12.6502 20.3002 12.2643 20.558 11.8396 20.7339C11.415 20.9098 10.9598 21.0004 10.5002 21.0004C9.57187 21.0004 8.68159 20.6316 8.02518 19.9752C7.36877 19.3188 7 18.4285 7 17.5002C7 16.5719 7.36877 15.6816 8.02518 15.0252L10.5252 12.5252C10.8502 12.2001 11.236 11.9423 11.6607 11.7664C12.0854 11.5905 12.5405 11.4999 13.0002 11.4999C13.4598 11.4999 13.915 11.5905 14.3397 11.7664C14.7643 11.9423 15.1502 12.2001 15.4752 12.5252C15.6076 12.6674 15.6797 12.8555 15.6763 13.0498C15.673 13.2441 15.5944 13.4296 15.4572 13.5672C15.3196 13.7044 15.1341 13.783 14.9398 13.7863C14.7455 13.7897 14.5574 13.7176 14.4152 13.5852C14.2296 13.399 14.009 13.2513 13.7662 13.1505C13.5234 13.0497 13.2631 12.9978 13.0002 12.9978C12.7373 12.9978 12.477 13.0497 12.2341 13.1505C11.9913 13.2513 11.7708 13.399 11.5852 13.5852L9.08518 16.0852C8.89899 16.2708 8.75126 16.4913 8.65046 16.7341C8.54966 16.977 8.49777 17.2373 8.49777 17.5002C8.49777 17.7631 8.54966 18.0234 8.65046 18.2662C8.75126 18.509 8.89899 18.7296 9.08518 18.9152Z" fill="#FF5A5F"/>
</svg>
