<svg width="114" height="103" viewBox="0 0 114 103" fill="none" xmlns="http://www.w3.org/2000/svg">
<mask id="path-1-inside-1_267_15273" fill="white">
<path d="M80.3047 51.874C81.7774 51.874 82.9714 53.0679 82.9714 54.5407V98.5169H80.3047V51.874Z"/>
</mask>
<path d="M82.9714 98.5169V103.85H88.3047V98.5169H82.9714ZM80.3047 98.5169H74.9714V103.85H80.3047V98.5169ZM77.638 54.5407V98.5169H88.3047V54.5407H77.638ZM82.9714 93.1836H80.3047V103.85H82.9714V93.1836ZM85.638 98.5169V51.874H74.9714V98.5169H85.638ZM80.3047 57.2074C78.8319 57.2074 77.638 56.0135 77.638 54.5407H88.3047C88.3047 50.1224 84.723 46.5407 80.3047 46.5407V57.2074Z" fill="#FF5A5F" mask="url(#path-1-inside-1_267_15273)"/>
<path fill-rule="evenodd" clip-rule="evenodd" d="M40.333 97.3577V97.7267V99.0601C40.333 100.248 41.7692 100.843 42.6092 100.003L43.552 99.0601L45.2849 97.3271L45.6663 96.9457L58.9632 83.6488L56.5219 81.2075L45.6663 92.0631L45.2849 92.4445L43.552 94.1775L42.6092 95.1203C42.5409 95.1885 42.4687 95.2473 42.3937 95.2971L40.333 97.3577ZM77.6663 96.9457L71.5963 90.8757L74.0376 88.4344L77.6663 92.0631V96.5863V96.9457ZM80.333 99.6124L80.7235 100.003C81.5635 100.843 82.9997 100.248 82.9997 99.0601V97.7267V95.276V94.7366V94.1775C82.9997 95.3654 81.5635 95.9602 80.7235 95.1203L80.333 94.7298V96.5863V99.6124Z" fill="#FF5A5F"/>
<path d="M35 49.2072C35 47.7344 36.1939 46.5405 37.6667 46.5405H75C76.4728 46.5405 77.6667 47.7344 77.6667 49.2072V96.6549C77.6667 97.8428 76.2305 98.4377 75.3905 97.5977L58.219 80.4261C57.1776 79.3848 55.4891 79.3847 54.4477 80.4261L37.2761 97.5977C36.4362 98.4377 35 97.8428 35 96.6549V49.2072Z" fill="#FF5A5F"/>
<path d="M57 25.5596L57 2.42822" stroke="#FF5A5F" stroke-width="4" stroke-linecap="round"/>
<path d="M36.8921 30.7842L31.1079 20.7691" stroke="#FF5A5F" stroke-width="4" stroke-linecap="round"/>
<path d="M15.5854 59.2734L4.4141 56.2801" stroke="#FF5A5F" stroke-width="4" stroke-linecap="round"/>
<path d="M109.466 56.2803L98.2945 59.2736" stroke="#FF5A5F" stroke-width="4" stroke-linecap="round"/>
<path d="M20.835 43.0791L2.00409 29.6457" stroke="#FF5A5F" stroke-width="4" stroke-linecap="round"/>
<path d="M77.1079 30.7842L82.8921 20.7691" stroke="#FF5A5F" stroke-width="4" stroke-linecap="round"/>
<path d="M93.165 43.0791L111.996 29.6457" stroke="#FF5A5F" stroke-width="4" stroke-linecap="round"/>
</svg>
