<svg xmlns="http://www.w3.org/2000/svg" width="32" height="12" viewBox="0 0 32 12" fill="none">
<path fill-rule="evenodd" clip-rule="evenodd" d="M25.2951 3.70808L26.5871 5.00009H19.9999C19.4476 5.00009 18.9999 5.4478 18.9999 6.00009C18.9999 6.55237 19.4476 7.00009 19.9999 7.00009H26.5768L25.29 8.29431C24.9006 8.68596 24.9024 9.31912 25.2941 9.70852C25.6858 10.0979 26.3189 10.0961 26.7083 9.70443L29.7004 6.69505C30.089 6.3042 30.088 5.67261 29.6983 5.28288L26.7093 2.29387C26.3188 1.90335 25.6856 1.90335 25.2951 2.29387C24.9046 2.68439 24.9046 3.31756 25.2951 3.70808ZM15.9999 5.00009C16.5522 5.00009 16.9999 5.4478 16.9999 6.00009C16.9999 6.55237 16.5522 7.00009 15.9999 7.00009H12.9999C12.4476 7.00009 11.9999 6.55237 11.9999 6.00009C11.9999 5.4478 12.4476 5.00009 12.9999 5.00009H15.9999ZM9.99988 6.00009C9.99988 5.4478 9.55216 5.00009 8.99988 5.00009H7.99988C7.44759 5.00009 6.99988 5.4478 6.99988 6.00009C6.99988 6.55237 7.44759 7.00009 7.99988 7.00009H8.99988C9.55216 7.00009 9.99988 6.55237 9.99988 6.00009ZM3.99988 5.00009C4.55216 5.00009 4.99988 5.4478 4.99988 6.00009C4.99988 6.55237 4.55216 7.00009 3.99988 7.00009C3.44759 7.00009 2.99988 6.55237 2.99988 6.00009C2.99988 5.4478 3.44759 5.00009 3.99988 5.00009Z" fill="#45375B"/>
<mask id="mask0_379_20558" style="mask-type:luminance" maskUnits="userSpaceOnUse" x="3" y="2" width="27" height="8">
<path fill-rule="evenodd" clip-rule="evenodd" d="M25.2951 3.70808L26.5871 5.00009H19.9999C19.4476 5.00009 18.9999 5.4478 18.9999 6.00009C18.9999 6.55237 19.4476 7.00009 19.9999 7.00009H26.5768L25.29 8.29431C24.9006 8.68596 24.9024 9.31912 25.2941 9.70852C25.6858 10.0979 26.3189 10.0961 26.7083 9.70443L29.7004 6.69505C30.089 6.3042 30.088 5.67261 29.6983 5.28288L26.7093 2.29387C26.3188 1.90335 25.6856 1.90335 25.2951 2.29387C24.9046 2.68439 24.9046 3.31756 25.2951 3.70808ZM15.9999 5.00009C16.5522 5.00009 16.9999 5.4478 16.9999 6.00009C16.9999 6.55237 16.5522 7.00009 15.9999 7.00009H12.9999C12.4476 7.00009 11.9999 6.55237 11.9999 6.00009C11.9999 5.4478 12.4476 5.00009 12.9999 5.00009H15.9999ZM9.99988 6.00009C9.99988 5.4478 9.55216 5.00009 8.99988 5.00009H7.99988C7.44759 5.00009 6.99988 5.4478 6.99988 6.00009C6.99988 6.55237 7.44759 7.00009 7.99988 7.00009H8.99988C9.55216 7.00009 9.99988 6.55237 9.99988 6.00009ZM3.99988 5.00009C4.55216 5.00009 4.99988 5.4478 4.99988 6.00009C4.99988 6.55237 4.55216 7.00009 3.99988 7.00009C3.44759 7.00009 2.99988 6.55237 2.99988 6.00009C2.99988 5.4478 3.44759 5.00009 3.99988 5.00009Z" fill="white"/>
</mask>
<g mask="url(#mask0_379_20558)">
</g>
</svg>
