<svg xmlns="http://www.w3.org/2000/svg" width="34" height="42" viewBox="0 0 34 42" fill="none">
<path fill-rule="evenodd" clip-rule="evenodd" d="M16.9224 40.3826L16.9999 40.5L17.0775 40.3826C18.2764 38.5682 22.5718 38.4315 23.9833 38.3866H23.9834C24.1846 38.3802 24.3176 38.3759 24.3855 38.3686C26.3844 38.1446 28.0813 37.5783 29.4291 36.6855C30.5102 35.9694 31.3699 35.0435 31.9843 33.9333C33.0302 32.0436 33.0003 30.2467 32.9998 30.2311V0.5H1.00015V30.2288C0.999744 30.2467 0.969784 32.0436 2.01558 33.9333C2.63 35.0435 3.4897 35.9695 4.57075 36.6855C5.91861 37.5783 7.61554 38.1446 9.61487 38.3687C9.68219 38.3759 9.81463 38.3801 10.015 38.3865L10.0165 38.3866L10.0169 38.3866C11.4287 38.4316 15.7236 38.5684 16.9224 40.3826Z" fill="#F5FAFF"/>
<path d="M16.9999 40.5L16.5828 40.7757L16.9998 41.4067L17.417 40.7758L16.9999 40.5ZM16.9224 40.3826L16.5052 40.6583L16.5052 40.6583L16.9224 40.3826ZM17.0775 40.3826L17.4946 40.6584L17.4947 40.6583L17.0775 40.3826ZM23.9833 38.3866V37.8866H23.9754L23.9674 37.8868L23.9833 38.3866ZM23.9834 38.3866V38.8866H23.9913L23.9993 38.8863L23.9834 38.3866ZM24.3855 38.3686L24.4388 38.8658L24.4412 38.8655L24.3855 38.3686ZM29.4291 36.6855L29.7052 37.1024L29.7052 37.1024L29.4291 36.6855ZM31.9843 33.9333L31.5468 33.6912L31.5468 33.6912L31.9843 33.9333ZM32.9998 30.2311L32.4997 30.2311L32.5 30.2441L32.9998 30.2311ZM32.9998 0.5H33.4998V0H32.9998V0.5ZM1.00015 0.5V0H0.500154V0.5H1.00015ZM1.00015 30.2288L1.50015 30.2403V30.2288H1.00015ZM2.01558 33.9333L1.57811 34.1754L1.57811 34.1754L2.01558 33.9333ZM4.57075 36.6855L4.29465 37.1024L4.29465 37.1024L4.57075 36.6855ZM9.61487 38.3687L9.55916 38.8656L9.56155 38.8659L9.61487 38.3687ZM10.015 38.3865L9.99909 38.8863L9.99998 38.8863L10.015 38.3865ZM10.0165 38.3866L10.0336 37.8869L10.0316 37.8868L10.0165 38.3866ZM10.0169 38.3866L9.9998 38.8863L10.001 38.8863L10.0169 38.3866ZM17.4171 40.2243L17.3395 40.107L16.5052 40.6583L16.5828 40.7757L17.4171 40.2243ZM16.6605 40.1069L16.5829 40.2242L17.417 40.7758L17.4946 40.6584L16.6605 40.1069ZM23.9674 37.8868C23.2628 37.9093 21.8002 37.9551 20.3571 38.2299C19.6355 38.3673 18.9 38.5652 18.2576 38.8561C17.6196 39.145 17.0323 39.5441 16.6604 40.107L17.4947 40.6583C17.7222 40.314 18.1214 40.0155 18.6701 39.7671C19.2143 39.5207 19.8657 39.3414 20.5442 39.2122C21.9014 38.9538 23.2923 38.9088 23.9992 38.8863L23.9674 37.8868ZM23.9834 37.8866H23.9833V38.8866H23.9834V37.8866ZM24.3322 37.8715C24.2883 37.8762 24.1816 37.88 23.9675 37.8868L23.9993 38.8863C24.1875 38.8803 24.3468 38.8756 24.4388 38.8658L24.3322 37.8715ZM29.153 36.2687C27.8854 37.1082 26.2688 37.6544 24.3298 37.8717L24.4412 38.8655C26.5 38.6347 28.2771 38.0483 29.7052 37.1024L29.153 36.2687ZM31.5468 33.6912C30.9722 34.7294 30.1686 35.596 29.153 36.2687L29.7052 37.1024C30.8518 36.3429 31.7675 35.3576 32.4218 34.1754L31.5468 33.6912ZM32.5 30.2441C32.4994 30.2187 32.5311 31.9128 31.5468 33.6912L32.4218 34.1754C33.5293 32.1744 33.5012 30.2748 33.4997 30.2181L32.5 30.2441ZM32.4998 0.5V30.2311H33.4998V0.5H32.4998ZM1.00015 1H32.9998V0H1.00015V1ZM1.50015 30.2288V0.5H0.500154V30.2288H1.50015ZM2.45306 33.6912C1.46901 31.9131 1.50051 30.219 1.50002 30.2403L0.500286 30.2174C0.498976 30.2744 0.470556 32.1741 1.57811 34.1754L2.45306 33.6912ZM4.84686 36.2687C3.83133 35.596 3.02764 34.7294 2.45305 33.6912L1.57811 34.1754C2.23236 35.3576 3.14806 36.3429 4.29465 37.1024L4.84686 36.2687ZM9.67058 37.8718C7.73116 37.6544 6.11444 37.1082 4.84685 36.2687L4.29465 37.1024C5.72278 38.0483 7.49992 38.6347 9.55916 38.8656L9.67058 37.8718ZM10.031 37.8868C9.81743 37.88 9.71146 37.8762 9.66819 37.8716L9.56155 38.8659C9.65293 38.8757 9.81183 38.8803 9.99909 38.8863L10.031 37.8868ZM10.0316 37.8868L10.0301 37.8868L9.99998 38.8863L10.0015 38.8864L10.0316 37.8868ZM10.034 37.8869L10.0336 37.8869L9.99947 38.8863L9.9998 38.8863L10.034 37.8869ZM17.3395 40.107C16.9676 39.5441 16.3804 39.1451 15.7425 38.8562C15.1001 38.5653 14.3647 38.3674 13.6431 38.23C12.2001 37.9552 10.7376 37.9093 10.0328 37.8868L10.001 38.8863C10.708 38.9089 12.0989 38.9539 13.456 39.2123C14.1344 39.3415 14.7858 39.5207 15.3299 39.7672C15.8785 40.0156 16.2777 40.314 16.5052 40.6583L17.3395 40.107Z" fill="#DFEAF6"/>
</svg>
