<svg xmlns="http://www.w3.org/2000/svg" width="34" height="41" viewBox="0 0 34 41" fill="none">
<path d="M17 28.5C14.7 28.5 12.55 28.85 10.55 29.55C8.55 30.25 6.7 31.2333 5 32.5V36.5H29V32.5C27.3 31.2333 25.45 30.25 23.45 29.55C21.45 28.85 19.3 28.5 17 28.5ZM5 40.5C3.9 40.5 2.95867 40.1087 2.176 39.326C1.39333 38.5433 1.00133 37.6013 1 36.5V4.5C1 3.4 1.392 2.45867 2.176 1.676C2.96 0.893333 3.90133 0.501333 5 0.5H29C30.1 0.5 31.042 0.892 31.826 1.676C32.61 2.46 33.0013 3.40133 33 4.5V36.5C33 37.6 32.6087 38.542 31.826 39.326C31.0433 40.11 30.1013 40.5013 29 40.5H5ZM17 24.5C18.9333 24.5 20.5833 23.8167 21.95 22.45C23.3167 21.0833 24 19.4333 24 17.5C24 15.5667 23.3167 13.9167 21.95 12.55C20.5833 11.1833 18.9333 10.5 17 10.5C15.0667 10.5 13.4167 11.1833 12.05 12.55C10.6833 13.9167 10 15.5667 10 17.5C10 19.4333 10.6833 21.0833 12.05 22.45C13.4167 23.8167 15.0667 24.5 17 24.5Z" fill="#F5FAFF" stroke="#DFEAF6"/>
</svg>
