<svg width="19" height="19" viewBox="0 0 19 19" fill="none" xmlns="http://www.w3.org/2000/svg">
<path d="M9.33333 17.6667C13.9357 17.6667 17.6667 13.9357 17.6667 9.33333C17.6667 4.73096 13.9357 1 9.33333 1C4.73096 1 1 4.73096 1 9.33333C1 13.9357 4.73096 17.6667 9.33333 17.6667Z" stroke="currentColor" stroke-width="2" stroke-linecap="round" stroke-linejoin="round"/>
<path d="M9.33333 14.3333C12.0948 14.3333 14.3333 12.0948 14.3333 9.33333C14.3333 6.57191 12.0948 4.33333 9.33333 4.33333C6.57191 4.33333 4.33333 6.57191 4.33333 9.33333C4.33333 12.0948 6.57191 14.3333 9.33333 14.3333Z" stroke="currentColor" stroke-width="2" stroke-linecap="round" stroke-linejoin="round"/>
<path d="M9.33333 11C10.2538 11 11 10.2538 11 9.33333C11 8.41286 10.2538 7.66667 9.33333 7.66667C8.41286 7.66667 7.66667 8.41286 7.66667 9.33333C7.66667 10.2538 8.41286 11 9.33333 11Z" stroke="currentColor" stroke-width="2" stroke-linecap="round" stroke-linejoin="round"/>
</svg>
